<svg xmlns="http://www.w3.org/2000/svg" width="900" height="900" viewBox="0 0 900 900">
  <defs>
    <linearGradient id="madalBg" x1="0" y1="0" x2="1" y2="1">
      <stop offset="0" stop-color="#ff6a00"/>
      <stop offset="0.48" stop-color="#ff4b00"/>
      <stop offset="1" stop-color="#b81200"/>
    </linearGradient>
    <filter id="texture">
      <feTurbulence type="fractalNoise" baseFrequency="0.9" numOctaves="3" seed="7"/>
      <feColorMatrix type="saturate" values="0"/>
      <feComponentTransfer>
        <feFuncA type="table" tableValues="0 0.16"/>
      </feComponentTransfer>
    </filter>
  </defs>
  <rect width="900" height="900" fill="url(#madalBg)"/>
  <rect width="900" height="900" filter="url(#texture)" opacity="0.8"/>
  <g fill="#fff" transform="translate(95 205)">
    <path d="M54 381c-32-46-18-98 25-127 20-14 48-8 61 14l72 125c12 20 39 26 58 12l42-30-78 128c-27 45-91 47-122 5L54 381Z"/>
    <path d="M255 89c28-50 101-49 128 2l158 302c13 25 47 26 62 3l30-47-68 158c-26 61-111 63-140 3L229 106l-41 31c-15 11-36-5-27-22 19-35 46-67 94-26Z"/>
    <path d="M485 89c28-50 101-49 128 2l158 302c13 25 47 26 62 3l30-47-68 158c-26 61-111 63-140 3L459 106l-41 31c-15 11-36-5-27-22 19-35 46-67 94-26Z"/>
  </g>
</svg>
